HIERARCHY
ROOT Hips
{
	OFFSET 0.00000 0.00000 0.00000
	CHANNELS 6 Xposition Yposition Zposition Zrotation Yrotation Xrotation 
	JOINT LHipJoint
	{
		OFFSET 0 0 0
		CHANNELS 3 Zrotation Yrotation Xrotation
		JOINT LeftUpLeg
		{
			OFFSET 1.37590 -1.78394 0.89329
			CHANNELS 3 Zrotation Yrotation Xrotation
			JOINT LeftLeg
			{
				OFFSET 2.47928 -6.81178 0.00000
				CHANNELS 3 Zrotation Yrotation Xrotation
				JOINT LeftFoot
				{
					OFFSET 2.63345 -7.23535 0.00000
					CHANNELS 3 Zrotation Yrotation Xrotation
					JOINT LeftToeBase
					{
						OFFSET 0.23938 -0.65768 2.27012
						CHANNELS 3 Zrotation Yrotation Xrotation
						End Site
						{
							OFFSET 0.00000 -0.00000 1.18363
						}
					}
				}
			}
		}
	}
	JOINT RHipJoint
	{
		OFFSET 0 0 0
		CHANNELS 3 Zrotation Yrotation Xrotation
		JOINT RightUpLeg
		{
			OFFSET -1.33617 -1.78394 0.89329
			CHANNELS 3 Zrotation Yrotation Xrotation
			JOINT RightLeg
			{
				OFFSET -2.56922 -7.05888 0.00000
				CHANNELS 3 Zrotation Yrotation Xrotation
				JOINT RightFoot
				{
					OFFSET -2.56568 -7.04915 0.00000
					CHANNELS 3 Zrotation Yrotation Xrotation
					JOINT RightToeBase
					{
						OFFSET -0.27533 -0.75646 2.18105
						CHANNELS 3 Zrotation Yrotation Xrotation
						End Site
						{
							OFFSET -0.00000 -0.00000 1.15233
						}
					}
				}
			}
		}
	}
	JOINT LowerBack
	{
		OFFSET 0 0 0
		CHANNELS 3 Zrotation Yrotation Xrotation
		JOINT Spine
		{
			OFFSET 0.06190 2.15152 -0.00935
			CHANNELS 3 Zrotation Yrotation Xrotation
			JOINT Spine1
			{
				OFFSET 0.06334 2.15332 0.00872
				CHANNELS 3 Zrotation Yrotation Xrotation
				JOINT Neck
				{
					OFFSET 0 0 0
					CHANNELS 3 Zrotation Yrotation Xrotation
					JOINT Neck1
					{
						OFFSET -0.04202 1.66908 0.23524
						CHANNELS 3 Zrotation Yrotation Xrotation
						JOINT Head
						{
							OFFSET 0.07510 1.69357 -0.24440
							CHANNELS 3 Zrotation Yrotation Xrotation
							End Site
							{
								OFFSET 0.02556 1.71719 -0.11000
							}
						}
					}
				}
				JOINT LeftShoulder
				{
					OFFSET 0 0 0
					CHANNELS 3 Zrotation Yrotation Xrotation
					JOINT LeftArm
					{
						OFFSET 3.67168 1.26306 -0.41342
						CHANNELS 3 Zrotation Yrotation Xrotation
						JOINT LeftForeArm
						{
							OFFSET 4.68510 -0.00000 -0.00000
							CHANNELS 3 Zrotation Yrotation Xrotation
							JOINT LeftHand
							{
								OFFSET 3.39626 -0.00000 -0.00000
								CHANNELS 3 Zrotation Yrotation Xrotation
								JOINT LeftFingerBase
								{
									OFFSET 0 0 0
									CHANNELS 3 Zrotation Yrotation Xrotation
									JOINT LeftHandIndex1
									{
										OFFSET 0.48608 -0.00000 -0.00000
										CHANNELS 3 Zrotation Yrotation Xrotation
										End Site
										{
											OFFSET 0.39189 -0.00000 -0.00000
										}
									}
								}
								JOINT LThumb
								{
									OFFSET 0 0 0
									CHANNELS 3 Zrotation Yrotation Xrotation
									End Site
									{
										OFFSET 0.39787 -0.00000 0.39787
									}
								}
							}
						}
					}
				}
				JOINT RightShoulder
				{
					OFFSET 0 0 0
					CHANNELS 3 Zrotation Yrotation Xrotation
					JOINT RightArm
					{
						OFFSET -3.04136 1.42992 -0.76390
						CHANNELS 3 Zrotation Yrotation Xrotation
						JOINT RightForeArm
						{
							OFFSET -5.55576 -0.00000 -0.00000
							CHANNELS 3 Zrotation Yrotation Xrotation
							JOINT RightHand
							{
								OFFSET -3.32774 -0.00000 -0.00000
								CHANNELS 3 Zrotation Yrotation Xrotation
								JOINT RightFingerBase
								{
									OFFSET 0 0 0
									CHANNELS 3 Zrotation Yrotation Xrotation
									JOINT RightHandIndex1
									{
										OFFSET -0.50763 -0.00000 -0.00000
										CHANNELS 3 Zrotation Yrotation Xrotation
										End Site
										{
											OFFSET -0.40926 -0.00000 -0.00000
										}
									}
								}
								JOINT RThumb
								{
									OFFSET 0 0 0
									CHANNELS 3 Zrotation Yrotation Xrotation
									End Site
									{
										OFFSET -0.41551 -0.00000 0.41551
									}
								}
							}
						}
					}
				}
			}
		}
	}
}
MOTION
Frames: 14
Frame Time: .0083333
0.7559 17.8487 8.5289 540.7460 -78.0402 -534.3110 0.0000 0.0000 0.0000 -15.0634 -5.8500 -29.4909 3.0921 10.8426 31.7509 0.3774 1.4247 -12.2101 0.4637 -4.3678 -12.1137 0.0000 0.0000 0.0000 12.2597 12.7707 -7.5808 -4.3328 -12.5906 37.8547 0.0883 9.3442 -4.8233 -0.0016 0.2615 -0.7184 12.1099 -3.6147 5.8376 15.7285 -5.6541 2.4411 10.6137 -3.5092 -0.0123 -18.3911 -20.5729 10.0484 27.1568 -36.2658 10.0584 7.5297 -17.6996 10.2397 -0.0000 0.0000 0.0000 -93.1260 11.4355 7.1633 19.0618 -29.4954 -5.0612 -0.0000 -0.0000 37.3583 8.5815 8.8574 1.3311 -7.1250 0.0000 -0.0000 -15.7134 38.4747 2.6019 -0.0000 0.0000 0.0000 57.2571 -1.6847 -18.3911 -9.7032 16.2740 -1.3906 0.0000 0.0000 27.7877 -13.4595 -27.9288 6.3960 7.1250 -0.0000 -0.0000 18.8484 -57.5646 -5.9393
0.5993 17.8240 8.5340 541.2000 -78.0853 -534.9550 0.0000 0.0000 0.0000 -14.9927 -6.0551 -29.2650 3.0596 10.7908 31.5777 0.3837 1.2630 -12.2277 0.4408 -4.2603 -11.8101 0.0000 0.0000 0.0000 12.3104 12.7132 -7.5269 -4.5441 -12.8512 38.8141 0.1205 9.1996 -3.9453 -0.0013 0.2363 -0.6492 11.8707 -3.6444 5.7588 15.6113 -5.6976 2.4400 10.6000 -3.5213 0.0373 -18.4197 -20.5247 9.9878 27.0543 -36.2458 10.2522 7.4975 -17.6898 10.2949 -0.0000 -0.0000 0.0000 -92.6070 11.0792 7.4327 19.4660 -29.9936 -5.2618 -0.0000 -0.0000 37.0016 8.8249 9.2623 1.4314 -7.1250 0.0000 -0.0000 -15.6066 38.8865 2.4201 -0.0000 -0.0000 0.0000 57.5526 -1.4428 -18.4111 -9.7029 16.2735 -1.3905 0.0000 0.0000 27.7784 -13.5145 -28.1725 6.4739 7.1250 -0.0000 -0.0000 18.9521 -57.8068 -6.0853
0.4430 17.7981 8.5386 541.6330 -78.1401 -535.5890 0.0000 0.0000 0.0000 -14.9462 -6.2358 -29.0259 3.0441 10.7661 31.4949 0.3909 1.0787 -12.2503 0.4164 -4.1422 -11.4771 0.0000 0.0000 0.0000 12.3563 12.6611 -7.5145 -4.7736 -13.1242 39.8351 0.1469 8.9984 -3.0247 -0.0009 0.1938 -0.5324 11.6188 -3.6758 5.6837 15.4880 -5.7416 2.4403 10.5868 -3.5333 0.0869 -18.4485 -20.4736 9.9238 26.9482 -36.2231 10.4557 7.4643 -17.6786 10.3530 0.0000 0.0000 0.0000 -92.0696 10.6901 7.6992 19.8835 -30.5018 -5.4721 -0.0000 -0.0000 36.6419 9.0942 9.6946 1.5440 -7.1250 0.0000 -0.0000 -15.4851 39.3278 2.2269 0.0000 0.0000 0.0000 57.8821 -1.1861 -18.4015 -9.7083 16.2820 -1.3920 0.0000 0.0000 27.7405 -13.5795 -28.4138 6.5566 7.1250 -0.0000 -0.0000 19.0464 -58.0487 -6.2291
0.2871 17.7712 8.5427 542.0410 -78.2044 -536.2080 0.0000 0.0000 0.0000 -14.9247 -6.3910 -28.7736 3.0445 10.7667 31.4969 0.3990 0.8731 -12.2804 0.3907 -4.0139 -11.1158 0.0000 0.0000 0.0000 12.3963 12.6126 -7.5453 -5.0214 -13.4079 40.9152 0.1663 8.7369 -2.0702 -0.0004 0.1321 -0.3629 11.3527 -3.7091 5.6120 15.3589 -5.7869 2.4419 10.5755 -3.5457 0.1366 -18.4778 -20.4189 9.8563 26.8362 -36.1968 10.6706 7.4300 -17.6656 10.4137 0.0000 -0.0000 0.0000 -91.5191 10.2678 7.9617 20.3123 -31.0168 -5.6914 -0.0000 -0.0000 36.2849 9.3903 10.1526 1.6697 -7.1250 0.0000 -0.0000 -15.3478 39.7979 2.0231 0.0000 -0.0000 0.0000 58.2441 -0.9152 -18.3494 -9.7206 16.3014 -1.3955 0.0000 0.0000 27.6633 -13.6549 -28.6513 6.6441 7.1250 -0.0000 -0.0000 19.1293 -58.2893 -6.3692
0.1317 17.7435 8.5463 542.4190 -78.2777 -536.8060 0.0000 0.0000 0.0000 -14.9294 -6.5205 -28.5075 3.0596 10.7909 31.5780 0.4082 0.6474 -12.3211 0.3642 -3.8766 -10.7297 0.0000 0.0000 0.0000 12.4287 12.5654 -7.6198 -5.2871 -13.7000 42.0489 0.1778 8.4172 -1.0928 -0.0001 0.0543 -0.1491 11.0735 -3.7437 5.5441 15.2232 -5.8322 2.4445 10.5645 -3.5578 0.1859 -18.5040 -20.3626 9.7817 26.7165 -36.1682 10.8974 7.3927 -17.6508 10.4771 0.0000 -0.0000 0.0000 -90.9585 9.8099 8.2213 20.7498 -31.5351 -5.9185 -0.0000 -0.0000 35.9341 9.7175 10.6284 1.8091 -7.1250 0.0000 -0.0000 -15.1891 40.2893 1.8120 0.0000 -0.0000 0.0000 58.6401 -0.6321 -18.2492 -9.7412 16.3337 -1.4013 0.0000 0.0000 27.5408 -13.7396 -28.8833 6.7356 7.1250 -0.0000 -0.0000 19.2011 -58.5267 -6.5048
-0.0231 17.7153 8.5493 542.7660 -78.3595 -537.3820 0.0000 0.0000 0.0000 -14.9589 -6.6250 -28.2264 3.0881 10.8364 31.7301 0.4185 0.4053 -12.3744 0.3372 -3.7315 -10.3226 0.0000 0.0000 0.0000 12.4538 12.5194 -7.7392 -5.5705 -13.9988 43.2327 0.1810 8.0432 -0.1045 -0.0000 -0.0370 0.1017 10.7808 -3.7794 5.4796 15.0814 -5.8777 2.4482 10.5546 -3.5697 0.2352 -18.5324 -20.3025 9.7038 26.5937 -36.1354 11.1334 7.3554 -17.6341 10.5433 -0.0000 -0.0000 0.0000 -90.3931 9.3143 8.4764 21.1923 -32.0521 -6.1517 -0.0000 -0.0000 35.5953 10.0684 11.1196 1.9612 -7.1250 0.0000 -0.0000 -15.0145 40.7995 1.5960 -0.0000 -0.0000 0.0000 59.0683 -0.3359 -18.0909 -9.7704 16.3796 -1.4095 0.0000 0.0000 27.3688 -13.8374 -29.1082 6.8328 7.1250 -0.0000 -0.0000 19.2562 -58.7602 -6.6331
-0.1773 17.6868 8.5517 543.0820 -78.4492 -537.9320 0.0000 0.0000 0.0000 -15.0126 -6.7050 -27.9308 3.1292 10.9013 31.9476 0.4300 0.1494 -12.4434 0.3101 -3.5801 -9.8981 0.0000 0.0000 0.0000 12.4700 12.4723 -7.9059 -5.8710 -14.3021 44.4618 0.1757 7.6214 0.8852 -0.0005 -0.1428 0.3924 10.4757 -3.8160 5.4197 14.9334 -5.9226 2.4523 10.5453 -3.5811 0.2828 -18.5598 -20.2396 9.6193 26.4643 -36.0989 11.3808 7.3160 -17.6152 10.6123 0.0000 -0.0000 0.0000 -89.8277 8.7818 8.7269 21.6382 -32.5657 -6.3900 -0.0000 -0.0000 35.2744 10.4397 11.6188 2.1252 -7.1250 0.0000 -0.0000 -14.8246 41.3215 1.3790 0.0000 -0.0000 0.0000 59.5283 -0.0295 -17.8636 -9.8097 16.4413 -1.4206 0.0000 0.0000 27.1425 -13.9495 -29.3235 6.9358 7.1250 -0.0000 -0.0000 19.2915 -58.9880 -6.7521
-0.3308 17.6583 8.5534 543.3670 -78.5463 -538.4570 0.0000 0.0000 0.0000 -15.0884 -6.7614 -27.6187 3.1813 10.9829 32.2224 0.4427 -0.1166 -12.5308 0.2835 -3.4244 -9.4626 0.0000 0.0000 0.0000 12.4788 12.4239 -8.1176 -6.1870 -14.6072 45.7279 0.1622 7.1551 1.8653 -0.0015 -0.2540 0.6979 10.1603 -3.8533 5.3633 14.7791 -5.9668 2.4573 10.5354 -3.5920 0.3298 -18.5876 -20.1729 9.5308 26.3316 -36.0570 11.6364 7.2766 -17.5937 10.6833 -0.0000 -0.0000 0.0000 -89.2658 8.2123 8.9756 22.0862 -33.0743 -6.6328 -0.0000 -0.0000 34.9725 10.8334 12.1205 2.3009 -7.1250 0.0000 -0.0000 -14.6164 41.8502 1.1632 -0.0000 -0.0000 0.0000 60.0200 0.2872 -17.5653 -9.8591 16.5189 -1.4346 0.0000 0.0000 26.8677 -14.0824 -29.5240 7.0471 7.1250 -0.0000 -0.0000 19.2959 -59.2067 -6.8556
-0.4835 17.6300 8.5546 543.6190 -78.6516 -538.9530 0.0000 0.0000 0.0000 -15.1854 -6.7966 -27.2907 3.2433 11.0788 32.5462 0.4567 -0.3892 -12.6372 0.2580 -3.2681 -9.0260 0.0000 0.0000 0.0000 12.4790 12.3735 -8.3758 -6.5172 -14.9115 47.0237 0.1407 6.6470 2.8262 -0.0033 -0.3708 1.0189 9.8345 -3.8909 5.3116 14.6187 -6.0097 2.4619 10.5252 -3.6021 0.3741 -18.6137 -20.1040 9.4354 26.1932 -36.0116 11.9018 7.2353 -17.5701 10.7567 -0.0000 -0.0000 0.0000 -88.7122 7.6063 9.2234 22.5342 -33.5755 -6.8790 -0.0000 -0.0000 34.6930 11.2338 12.6246 2.4857 -7.1250 0.0000 -0.0000 -14.4029 42.3841 0.9511 -0.0000 -0.0000 0.0000 60.5423 0.6122 -17.1882 -9.9195 16.6135 -1.4518 0.0000 0.0000 26.5402 -14.2444 -29.7073 7.1706 7.1250 -0.0000 -0.0000 19.2584 -59.4162 -6.9388
-0.6352 17.6023 8.5552 543.8370 -78.7637 -539.4180 0.0000 0.0000 0.0000 -15.3018 -6.8117 -26.9448 3.3134 11.1858 32.9092 0.4718 -0.6645 -12.7620 0.2338 -3.1122 -8.5912 0.0000 0.0000 0.0000 12.4707 12.3218 -8.6789 -6.8595 -15.2124 48.3407 0.1123 6.1033 3.7559 -0.0057 -0.4893 1.3445 9.5004 -3.9278 5.2637 14.4517 -6.0502 2.4672 10.5129 -3.6107 0.4171 -18.6360 -20.0336 9.3310 26.0504 -35.9623 12.1750 7.1921 -17.5439 10.8322 0.0000 0.0000 0.0000 -88.1696 6.9619 9.4744 22.9806 -34.0676 -7.1274 -0.0000 -0.0000 34.4358 11.6419 13.1224 2.6781 -7.1250 0.0000 -0.0000 -14.1812 42.9151 0.7458 0.0000 0.0000 0.0000 61.0954 0.9463 -16.7305 -9.9914 16.7261 -1.4725 0.0000 0.0000 26.1608 -14.4375 -29.8728 7.3073 7.1250 -0.0000 -0.0000 19.1759 -59.6162 -7.0000
-0.7861 17.5754 8.5552 544.0260 -78.8825 -539.8540 0.0000 0.0000 0.0000 -15.4349 -6.8082 -26.5796 3.3899 11.3010 33.3017 0.4883 -0.9408 -12.9072 0.2112 -2.9587 -8.1638 0.0000 0.0000 0.0000 12.4552 12.2672 -9.0262 -7.2119 -15.5078 49.6712 0.0781 5.5302 4.6449 -0.0088 -0.6073 1.6688 9.1597 -3.9646 5.2194 14.2790 -6.0891 2.4722 10.4986 -3.6183 0.4578 -18.6573 -19.9606 9.2206 25.9026 -35.9079 12.4561 7.1478 -17.5152 10.9093 -0.0000 -0.0000 0.0000 -87.6436 6.2834 9.7291 23.4252 -34.5505 -7.3780 -0.0000 -0.0000 34.1998 12.0545 13.6136 2.8775 -7.1250 0.0000 -0.0000 -13.9535 43.4426 0.5476 -0.0000 -0.0000 0.0000 61.6766 1.2875 -16.1847 -10.0755 16.8575 -1.4968 0.0000 0.0000 25.7254 -14.6655 -30.0203 7.4593 7.1250 -0.0000 -0.0000 19.0437 -59.8079 -7.0373
-0.9359 17.5495 8.5545 544.1760 -79.0085 -540.2520 0.0000 0.0000 0.0000 -15.5845 -6.7901 -26.1940 3.4711 11.4212 33.7139 0.5060 -1.2167 -13.0718 0.1902 -2.8085 -7.7461 0.0000 0.0000 0.0000 12.4300 12.2080 -9.4199 -7.5727 -15.7958 51.0085 0.0394 4.9363 5.4839 -0.0125 -0.7219 1.9840 8.8116 -4.0013 5.1803 14.1008 -6.1257 2.4749 10.4836 -3.6247 0.4932 -18.6764 -19.8844 9.1048 25.7491 -35.8467 12.7441 7.1027 -17.4831 10.9867 -0.0000 0.0000 0.0000 -87.1392 5.5734 9.9904 23.8665 -35.0227 -7.6298 -0.0000 -0.0000 33.9842 12.4695 14.0936 3.0823 -7.1250 0.0000 -0.0000 -13.7204 43.9616 0.3587 -0.0000 0.0000 0.0000 62.2835 1.6327 -15.5448 -10.1732 17.0100 -1.5252 0.0000 0.0000 25.2338 -14.9284 -30.1513 7.6273 7.1250 -0.0000 -0.0000 18.8619 -59.9926 -7.0508
-1.0847 17.5250 8.5533 544.2950 -79.1413 -540.6160 0.0000 0.0000 0.0000 -15.7471 -6.7590 -25.7869 3.5549 11.5433 34.1350 0.5250 -1.4899 -13.2534 0.1713 -2.6659 -7.3500 0.0000 0.0000 0.0000 12.3977 12.1434 -9.8555 -7.9381 -16.0736 52.3395 -0.0021 4.3308 6.2631 -0.0166 -0.8312 2.2844 8.4599 -4.0378 5.1443 13.9174 -6.1608 2.4767 10.4655 -3.6302 0.5259 -18.6929 -19.8067 8.9811 25.5914 -35.7805 13.0370 7.0563 -17.4482 11.0650 -0.0000 0.0000 0.0000 -86.6592 4.8315 10.2607 24.3036 -35.4837 -7.8821 -0.0000 -0.0000 33.7875 12.8816 14.5591 3.2902 -7.1250 0.0000 -0.0000 -13.4857 44.4685 0.1803 -0.0000 0.0000 0.0000 62.9153 1.9836 -14.8080 -10.2856 17.1851 -1.5583 0.0000 0.0000 24.6870 -15.2244 -30.2716 7.8117 7.1250 -0.0000 -0.0000 18.6360 -60.1756 -7.0445
-1.2323 17.5020 8.5514 544.3780 -79.2810 -540.9400 0.0000 0.0000 0.0000 -15.9223 -6.7170 -25.3584 3.6395 11.6646 34.5555 0.5449 -1.7589 -13.4490 0.1549 -2.5362 -6.9901 0.0000 0.0000 0.0000 12.3579 12.0727 -10.3298 -8.3045 -16.3387 53.6522 -0.0447 3.7221 6.9695 -0.0208 -0.9318 2.5612 8.1050 -4.0730 5.1093 13.7283 -6.1933 2.4784 10.4435 -3.6342 0.5576 -18.7037 -19.7300 8.8481 25.4297 -35.7107 13.3320 7.0077 -17.4108 11.1431 0.0000 -0.0000 0.0000 -86.2060 4.0585 10.5455 24.7363 -35.9333 -8.1347 -0.0000 -0.0000 33.6062 13.2852 15.0044 3.4981 -7.1250 0.0000 -0.0000 -13.2524 44.9570 0.0143 0.0000 -0.0000 0.0000 63.5709 2.3397 -13.9782 -10.4136 17.3838 -1.5963 0.0000 0.0000 24.0879 -15.5536 -30.3737 8.0110 7.1250 -0.0000 -0.0000 18.3603 -60.3499 -7.0126
